<svg xmlns="http://www.w3.org/2000/svg" width="458" height="458" viewBox="0 0 457.62 457.62" fill="none">
  <path d="M415.02 0H42.6C37.08 0 32.6 4.48 32.6 10V447.62C32.6 453.14 37.08 457.62 42.6 457.62H415.02C420.54 457.62 425.02 453.14 425.02 447.62V10C425.02 4.48 420.54 0 415.02 0Z M109.27 407.19C109.27 409.99 107 412.27 104.19 412.27H74.1C71.3 412.27 69.02 409.99 69.02 407.19V377.09C69.02 374.29 71.3 372.01 74.1 372.01H104.19C106.99 372.01 109.27 374.29 109.27 377.09V407.19Z M109.27 325.52C109.27 328.32 107 330.6 104.19 330.6H74.1C71.3 330.6 69.02 328.32 69.02 325.52V295.43C69.02 292.63 71.3 290.35 74.1 290.35H104.19C106.99 290.35 109.27 292.63 109.27 295.43V325.52Z M109.27 243.86C109.27 246.66 107 248.94 104.19 248.94H74.1C71.3 248.94 69.02 246.66 69.02 243.86V213.76C69.02 210.96 71.3 208.68 74.1 208.68H104.19C106.99 208.68 109.27 210.96 109.27 213.76V243.86Z M109.27 162.19C109.27 164.99 107 167.27 104.19 167.27H74.1C71.3 167.27 69.02 164.99 69.02 162.19V132.09C69.02 129.29 71.3 127.01 74.1 127.01H104.19C106.99 127.01 109.27 129.29 109.27 132.09V162.19Z M109.27 80.53C109.27 83.33 107 85.61 104.19 85.61H74.1C71.3 85.61 69.02 83.33 69.02 80.53V50.43C69.02 47.63 71.3 45.35 74.1 45.35H104.19C106.99 45.35 109.27 47.63 109.27 50.43V80.53Z M315.56 392.21C315.56 397.73 311.08 402.21 305.56 402.21H152.06C146.54 402.21 142.06 397.73 142.06 392.21V258.72C142.06 253.2 146.54 248.72 152.06 248.72H305.55C311.08 248.72 315.56 253.2 315.56 258.72V392.21Z M317.56 198.91C317.56 204.43 313.08 208.91 307.56 208.91H154.06C148.54 208.91 144.06 204.43 144.06 198.91V65.41C144.06 59.89 148.54 55.41 154.06 55.41H307.55C313.08 55.41 317.56 59.89 317.56 65.41V198.91Z M391.94 407.19C391.94 409.99 389.67 412.27 386.86 412.27H356.77C353.97 412.27 351.69 409.99 351.69 407.19V377.09C351.69 374.29 353.97 372.01 356.77 372.01H386.86C389.66 372.01 391.94 374.29 391.94 377.09V407.19Z M391.94 325.52C391.94 328.32 389.67 330.6 386.86 330.6H356.77C353.97 330.6 351.69 328.32 351.69 325.52V295.43C351.69 292.63 353.97 290.35 356.77 290.35H386.86C389.66 290.35 391.94 292.63 391.94 295.43V325.52Z M391.94 243.86C391.94 246.66 389.67 248.94 386.86 248.94H356.77C353.97 248.94 351.69 246.66 351.69 243.86V213.76C351.69 210.96 353.97 208.68 356.77 208.68H386.86C389.66 208.68 391.94 210.96 391.94 213.76V243.86Z M391.94 162.19C391.94 164.99 389.67 167.27 386.86 167.27H356.77C353.97 167.27 351.69 164.99 351.69 162.19V132.09C351.69 129.29 353.97 127.01 356.77 127.01H386.86C389.66 127.01 391.94 129.29 391.94 132.09V162.19Z M391.94 80.53C391.94 83.33 389.67 85.61 386.86 85.61H356.77C353.97 85.61 351.69 83.33 351.69 80.53V50.43C351.69 47.63 353.97 45.35 356.77 45.35H386.86C389.66 45.35 391.94 47.63 391.94 50.43V80.53Z" fill="#555555"/>
  <path d="M164.06 75.41H297.55V188.9H164.06V75.41Z" fill="#FFFFFF"/>
  <path d="M162.06 268.72H295.55V382.21H162.06V268.72Z" fill="#FFFFFF"/>
</svg>
